HIERARCHY
ROOT mixamorig:Hips
{
	OFFSET -0.000008 104.274872 1.554316
	CHANNELS 6 Xposition Yposition Zposition Xrotation Yrotation Zrotation
	JOINT mixamorig:Spine
	{
		OFFSET -0.000005 10.181595 0.131519
		CHANNELS 6 Xposition Yposition Zposition Xrotation Yrotation Zrotation
		JOINT mixamorig:Spine1
		{
			OFFSET -0.000000 9.893959 -1.470707
			CHANNELS 6 Xposition Yposition Zposition Xrotation Yrotation Zrotation
			JOINT mixamorig:Spine2
			{
				OFFSET -0.000000 9.220757 -1.370641
				CHANNELS 6 Xposition Yposition Zposition Xrotation Yrotation Zrotation
				JOINT mixamorig:Neck
				{
					OFFSET 0.000001 16.740417 -2.049036
					CHANNELS 6 Xposition Yposition Zposition Xrotation Yrotation Zrotation
					JOINT mixamorig:Head
					{
						OFFSET 0.000000 9.617874 1.685006
						CHANNELS 6 Xposition Yposition Zposition Xrotation Yrotation Zrotation
						JOINT mixamorig:HeadTop_End
						{
							OFFSET 0.000002 22.037354 7.501101
							CHANNELS 6 Xposition Yposition Zposition Xrotation Yrotation Zrotation
							End Site
							{
								OFFSET 0.000168 2310.654297 -282.823242
							}
						}
					}
				}
				JOINT mixamorig:RightShoulder
				{
					OFFSET -4.569970 11.014908 -2.160885
					CHANNELS 6 Xposition Yposition Zposition Xrotation Yrotation Zrotation
					JOINT mixamorig:RightArm
					{
						OFFSET -10.592851 -0.524811 -2.232101
						CHANNELS 6 Xposition Yposition Zposition Xrotation Yrotation Zrotation
						JOINT mixamorig:RightForeArm
						{
							OFFSET -27.841511 0.000031 -0.000004
							CHANNELS 6 Xposition Yposition Zposition Xrotation Yrotation Zrotation
							JOINT mixamorig:RightHand
							{
								OFFSET -28.328831 -0.000015 0.000015
								CHANNELS 6 Xposition Yposition Zposition Xrotation Yrotation Zrotation
								JOINT mixamorig:RightHandThumb1
								{
									OFFSET -2.464806 -1.573990 2.681852
									CHANNELS 6 Xposition Yposition Zposition Xrotation Yrotation Zrotation
									JOINT mixamorig:RightHandThumb2
									{
										OFFSET -3.215179 -1.872803 1.924282
										CHANNELS 6 Xposition Yposition Zposition Xrotation Yrotation Zrotation
										JOINT mixamorig:RightHandThumb3
										{
											OFFSET -2.654831 -1.527969 1.512609
											CHANNELS 6 Xposition Yposition Zposition Xrotation Yrotation Zrotation
											JOINT mixamorig:RightHandThumb4
											{
												OFFSET -2.018814 -1.152008 1.108052
												CHANNELS 6 Xposition Yposition Zposition Xrotation Yrotation Zrotation
												End Site
												{
													OFFSET -188.809540 -114.533607 132.431396
												}
											}
										}
									}
								}
								JOINT mixamorig:RightHandIndex1
								{
									OFFSET -9.108284 -0.517868 2.259835
									CHANNELS 6 Xposition Yposition Zposition Xrotation Yrotation Zrotation
									JOINT mixamorig:RightHandIndex2
									{
										OFFSET -3.699989 0.000000 0.001215
										CHANNELS 6 Xposition Yposition Zposition Xrotation Yrotation Zrotation
										JOINT mixamorig:RightHandIndex3
										{
											OFFSET -2.850006 0.000031 -0.000522
											CHANNELS 6 Xposition Yposition Zposition Xrotation Yrotation Zrotation
											JOINT mixamorig:RightHandIndex4
											{
												OFFSET -2.772186 -0.000015 -0.000020
												CHANNELS 6 Xposition Yposition Zposition Xrotation Yrotation Zrotation
												End Site
												{
													OFFSET -277.218445 0.000000 -0.050231
												}
											}
										}
									}
								}
								JOINT mixamorig:RightHandMiddle1
								{
									OFFSET -9.532516 -0.000031 -0.000023
									CHANNELS 6 Xposition Yposition Zposition Xrotation Yrotation Zrotation
									JOINT mixamorig:RightHandMiddle2
									{
										OFFSET -3.700005 -0.000015 0.003713
										CHANNELS 6 Xposition Yposition Zposition Xrotation Yrotation Zrotation
										JOINT mixamorig:RightHandMiddle3
										{
											OFFSET -2.949974 0.000015 -0.002054
											CHANNELS 6 Xposition Yposition Zposition Xrotation Yrotation Zrotation
											JOINT mixamorig:RightHandMiddle4
											{
												OFFSET -2.946640 0.000000 -0.000156
												CHANNELS 6 Xposition Yposition Zposition Xrotation Yrotation Zrotation
												End Site
												{
													OFFSET -294.664337 0.000000 -0.113670
												}
											}
										}
									}
								}
								JOINT mixamorig:RightHandRing1
								{
									OFFSET -9.103600 -0.043076 -1.865134
									CHANNELS 6 Xposition Yposition Zposition Xrotation Yrotation Zrotation
									JOINT mixamorig:RightHandRing2
									{
										OFFSET -3.379288 0.000000 -0.001055
										CHANNELS 6 Xposition Yposition Zposition Xrotation Yrotation Zrotation
										JOINT mixamorig:RightHandRing3
										{
											OFFSET -2.889687 -0.000015 0.000379
											CHANNELS 6 Xposition Yposition Zposition Xrotation Yrotation Zrotation
											JOINT mixamorig:RightHandRing4
											{
												OFFSET -2.638809 -0.000015 0.000941
												CHANNELS 6 Xposition Yposition Zposition Xrotation Yrotation Zrotation
												End Site
												{
													OFFSET -263.880371 0.000000 0.516020
												}
											}
										}
									}
								}
								JOINT mixamorig:RightHandPinky1
								{
									OFFSET -8.076683 -0.486710 -3.806280
									CHANNELS 6 Xposition Yposition Zposition Xrotation Yrotation Zrotation
									JOINT mixamorig:RightHandPinky2
									{
										OFFSET -3.600014 -0.000015 -0.003747
										CHANNELS 6 Xposition Yposition Zposition Xrotation Yrotation Zrotation
										JOINT mixamorig:RightHandPinky3
										{
											OFFSET -2.099983 0.000000 -0.005739
											CHANNELS 6 Xposition Yposition Zposition Xrotation Yrotation Zrotation
											JOINT mixamorig:RightHandPinky4
											{
												OFFSET -2.115768 -0.000031 -0.003680
												CHANNELS 6 Xposition Yposition Zposition Xrotation Yrotation Zrotation
												End Site
												{
													OFFSET -211.577087 0.000000 -0.350686
												}
											}
										}
									}
								}
							}
						}
					}
				}
				JOINT mixamorig:LeftShoulder
				{
					OFFSET 4.570447 11.014725 -2.160855
					CHANNELS 6 Xposition Yposition Zposition Xrotation Yrotation Zrotation
					JOINT mixamorig:LeftArm
					{
						OFFSET 10.592371 -0.524597 -2.232119
						CHANNELS 6 Xposition Yposition Zposition Xrotation Yrotation Zrotation
						JOINT mixamorig:LeftForeArm
						{
							OFFSET 27.841532 -0.000031 0.000026
							CHANNELS 6 Xposition Yposition Zposition Xrotation Yrotation Zrotation
							JOINT mixamorig:LeftHand
							{
								OFFSET 28.328846 -0.000061 0.000022
								CHANNELS 6 Xposition Yposition Zposition Xrotation Yrotation Zrotation
								JOINT mixamorig:LeftHandThumb1
								{
									OFFSET 2.466141 -1.576172 2.681732
									CHANNELS 6 Xposition Yposition Zposition Xrotation Yrotation Zrotation
									JOINT mixamorig:LeftHandThumb2
									{
										OFFSET 3.217812 -1.872070 1.916482
										CHANNELS 6 Xposition Yposition Zposition Xrotation Yrotation Zrotation
										JOINT mixamorig:LeftHandThumb3
										{
											OFFSET 2.656029 -1.528778 1.514513
											CHANNELS 6 Xposition Yposition Zposition Xrotation Yrotation Zrotation
											JOINT mixamorig:LeftHandThumb4
											{
												OFFSET 2.020889 -1.154053 1.115139
												CHANNELS 6 Xposition Yposition Zposition Xrotation Yrotation Zrotation
												End Site
												{
													OFFSET 190.885437 -115.081749 130.048782
												}
											}
										}
									}
								}
								JOINT mixamorig:LeftHandIndex1
								{
									OFFSET 9.109314 -0.518021 2.259871
									CHANNELS 6 Xposition Yposition Zposition Xrotation Yrotation Zrotation
									JOINT mixamorig:LeftHandIndex2
									{
										OFFSET 3.699989 0.000000 -0.000322
										CHANNELS 6 Xposition Yposition Zposition Xrotation Yrotation Zrotation
										JOINT mixamorig:LeftHandIndex3
										{
											OFFSET 2.850006 0.000000 0.000352
											CHANNELS 6 Xposition Yposition Zposition Xrotation Yrotation Zrotation
											JOINT mixamorig:LeftHandIndex4
											{
												OFFSET 2.774864 -0.000031 -0.000027
												CHANNELS 6 Xposition Yposition Zposition Xrotation Yrotation Zrotation
												End Site
												{
													OFFSET 277.486267 0.000000 -0.009857
												}
											}
										}
									}
								}
								JOINT mixamorig:LeftHandMiddle1
								{
									OFFSET 9.533394 0.000061 0.000044
									CHANNELS 6 Xposition Yposition Zposition Xrotation Yrotation Zrotation
									JOINT mixamorig:LeftHandMiddle2
									{
										OFFSET 3.699989 -0.000015 -0.000231
										CHANNELS 6 Xposition Yposition Zposition Xrotation Yrotation Zrotation
										JOINT mixamorig:LeftHandMiddle3
										{
											OFFSET 2.949997 -0.000015 -0.000059
											CHANNELS 6 Xposition Yposition Zposition Xrotation Yrotation Zrotation
											JOINT mixamorig:LeftHandMiddle4
											{
												OFFSET 2.952896 0.000031 0.000063
												CHANNELS 6 Xposition Yposition Zposition Xrotation Yrotation Zrotation
												End Site
												{
													OFFSET 295.289337 0.000000 0.022810
												}
											}
										}
									}
								}
								JOINT mixamorig:LeftHandRing1
								{
									OFFSET 9.104523 -0.042999 -1.865074
									CHANNELS 6 Xposition Yposition Zposition Xrotation Yrotation Zrotation
									JOINT mixamorig:LeftHandRing2
									{
										OFFSET 3.150009 -0.000031 0.000043
										CHANNELS 6 Xposition Yposition Zposition Xrotation Yrotation Zrotation
										JOINT mixamorig:LeftHandRing3
										{
											OFFSET 2.949982 -0.000015 0.000040
											CHANNELS 6 Xposition Yposition Zposition Xrotation Yrotation Zrotation
											JOINT mixamorig:LeftHandRing4
											{
												OFFSET 2.644348 0.000000 0.000057
												CHANNELS 6 Xposition Yposition Zposition Xrotation Yrotation Zrotation
												End Site
												{
													OFFSET 264.434631 0.000000 0.012105
												}
											}
										}
									}
								}
								JOINT mixamorig:LeftHandPinky1
								{
									OFFSET 8.077789 -0.486847 -3.806259
									CHANNELS 6 Xposition Yposition Zposition Xrotation Yrotation Zrotation
									JOINT mixamorig:LeftHandPinky2
									{
										OFFSET 3.599953 0.000031 0.014727
										CHANNELS 6 Xposition Yposition Zposition Xrotation Yrotation Zrotation
										JOINT mixamorig:LeftHandPinky3
										{
											OFFSET 2.100021 0.000015 0.007705
											CHANNELS 6 Xposition Yposition Zposition Xrotation Yrotation Zrotation
											JOINT mixamorig:LeftHandPinky4
											{
												OFFSET 2.125504 0.000031 0.007517
												CHANNELS 6 Xposition Yposition Zposition Xrotation Yrotation Zrotation
												End Site
												{
													OFFSET 212.550781 0.000000 0.625752
												}
											}
										}
									}
								}
							}
						}
					}
				}
			}
		}
	}
	JOINT mixamorig:RightUpLeg
	{
		OFFSET -8.207787 -6.751648 -1.599560
		CHANNELS 6 Xposition Yposition Zposition Xrotation Yrotation Zrotation
		JOINT mixamorig:RightLeg
		{
			OFFSET -0.000002 -44.370117 0.345942
			CHANNELS 6 Xposition Yposition Zposition Xrotation Yrotation Zrotation
			JOINT mixamorig:RightFoot
			{
				OFFSET 0.000003 -44.423679 -3.043532
				CHANNELS 6 Xposition Yposition Zposition Xrotation Yrotation Zrotation
				JOINT mixamorig:RightToeBase
				{
					OFFSET -0.000002 -8.728671 10.710558
					CHANNELS 6 Xposition Yposition Zposition Xrotation Yrotation Zrotation
					JOINT mixamorig:RightToe_End
					{
						OFFSET -0.000001 -0.000679 9.278119
						CHANNELS 6 Xposition Yposition Zposition Xrotation Yrotation Zrotation
						End Site
						{
							OFFSET 0.000000 -0.067690 927.812134
						}
					}
				}
			}
		}
	}
	JOINT mixamorig:LeftUpLeg
	{
		OFFSET 8.207793 -6.751686 -1.599556
		CHANNELS 6 Xposition Yposition Zposition Xrotation Yrotation Zrotation
		JOINT mixamorig:LeftLeg
		{
			OFFSET -0.000004 -44.370014 0.346954
			CHANNELS 6 Xposition Yposition Zposition Xrotation Yrotation Zrotation
			JOINT mixamorig:LeftFoot
			{
				OFFSET -0.000001 -44.423672 -3.044401
				CHANNELS 6 Xposition Yposition Zposition Xrotation Yrotation Zrotation
				JOINT mixamorig:LeftToeBase
				{
					OFFSET -0.000002 -8.728669 10.710558
					CHANNELS 6 Xposition Yposition Zposition Xrotation Yrotation Zrotation
					JOINT mixamorig:LeftToe_End
					{
						OFFSET -0.000003 -0.000679 9.278133
						CHANNELS 6 Xposition Yposition Zposition Xrotation Yrotation Zrotation
						End Site
						{
							OFFSET 0.000000 -0.068021 927.813477
						}
					}
				}
			}
		}
	}
}
MOTION
Frames: 3
Frame Time: 0.033333
0.000006 104.270477 1.554256 0.000010 0.000003 -0.000113 -0.000005 10.181587 0.131522 0.000001 -0.000003 0.000084 -0.000000 9.893967 -1.470711 0.000001 0.000000 -0.000000 -0.000000 9.220802 -1.370642 0.000000 -0.000000 -0.000000 0.000001 16.740433 -2.049030 0.000000 -0.000000 -0.000000 0.000000 9.617859 1.685014 0.000000 0.000000 0.000000 0.000002 22.037384 7.501101 0.000000 -0.000000 0.000000 -4.569968 11.014880 -2.160881 0.000008 0.000001 -0.000038 -10.592868 -0.524787 -2.231878 71.258640 35.346601 -25.727163 -27.841536 0.000013 0.000554 -55.094177 108.761323 72.113725 -28.328817 0.000009 0.000022 -0.000318 -0.000042 0.000005 -2.464392 -1.573831 2.682334 -43.816773 -517.652387 -0.885124 -3.215227 -1.872514 1.924617 -32.671759 146.357143 210.399866 -2.654960 -1.527874 1.513063 148.105180 27.521966 -29.186935 -2.018831 -1.152022 1.108051 -0.000001 -0.000000 0.000007 -9.108372 -0.517555 2.260128 102.406898 15.052842 -18.722981 -3.700087 0.000321 0.001529 99.731369 13.602544 -16.075345 -2.850087 0.000375 -0.000244 98.407364 11.145136 -12.898484 -2.772172 -0.000000 -0.000015 0.000000 0.000002 0.000001 -9.532578 0.000272 0.000253 97.152795 15.705984 -17.928926 -3.700085 0.000329 0.003984 96.032788 12.579363 -13.860132 -2.950053 0.000320 -0.001773 98.430191 11.896107 -13.763920 -2.946625 0.000000 -0.000155 0.000000 -0.000000 0.000000 -9.103711 -0.042764 -1.864868 96.442312 17.559995 -19.565857 -3.379320 0.000333 -0.000818 95.031564 8.640135 -9.449524 -2.889764 0.000347 0.000684 102.509016 6.404126 -8.032441 -2.638800 -0.000011 0.000942 0.000001 0.000001 0.000002 -8.076750 -0.486408 -3.805995 90.246962 19.447335 -19.375435 -3.600048 0.000284 -0.003500 92.002491 7.356880 -7.255604 -2.100012 0.000331 -0.005465 96.102927 3.306807 -3.443236 -2.115759 -0.000042 -0.003679 -0.000002 -0.000001 -0.000004 4.570446 11.014691 -2.160851 -0.000018 0.000010 -0.000021 10.592529 -0.524533 -2.232396 70.287557 -66.930847 49.907714 27.841747 -0.000088 -0.000102 227.331672 -71.334031 242.820110 28.328833 0.000002 0.000034 0.000021 -0.000089 -0.000000 2.466149 -1.576167 2.681876 125.832766 152.426026 -164.290966 3.217804 -1.872030 1.916529 270.634635 48.816612 40.665365 2.655967 -1.528843 1.514596 -148.571518 58.976983 97.177575 2.020898 -1.154044 1.115147 0.000004 0.000003 0.000006 9.109307 -0.517666 2.260004 200.852026 -0.351708 358.142171 3.699700 0.000126 -0.000238 182.354358 -4.442251 -484.038240 2.850101 0.000313 0.000304 145.963383 -10.349500 -327.039539 2.774887 -0.000046 -0.000029 0.000001 0.000001 0.000000 9.533442 0.000396 0.000201 205.458032 1.822104 8.087523 3.700013 0.000374 -0.000092 204.160515 0.631329 2.959970 2.949867 0.000368 0.000055 192.862207 -5.222739 -44.070211 2.952867 -0.000014 0.000070 -0.000005 -0.000001 -0.000000 9.104539 -0.042668 -1.864905 210.911583 -0.680391 -2.466037 3.149989 0.000399 0.000216 214.966025 -1.607839 -5.106269 2.949910 0.000375 0.000223 215.414959 -7.251246 -22.453026 2.644327 0.000030 0.000064 -0.000001 -0.000001 -0.000001 8.077754 -0.486504 -3.806098 206.666976 -2.664182 -12.936455 3.600021 0.000363 0.014868 205.112575 4.187715 16.512769 2.100082 0.000312 0.007828 201.148852 5.387898 25.758882 2.125491 -0.000028 0.007500 0.000004 -0.000001 0.000002 -8.207786 -6.751667 -1.599560 -0.077001 -0.000003 0.000080 -0.000002 -44.370110 0.345938 0.153719 -0.000000 -0.000000 0.000000 -44.423679 -3.043532 -0.076700 0.000000 -0.000002 -0.000006 -8.728667 10.710559 -0.000009 -0.000000 -0.000000 -0.000001 -0.000679 9.278123 0.000000 -0.000000 -0.000000 8.207792 -6.751710 -1.599556 -0.074518 -0.000003 0.000081 -0.000002 -44.370014 0.346960 0.148822 0.000002 0.000000 -0.000001 -44.423664 -3.044403 -0.074314 0.000000 -0.000002 -0.000004 -8.728671 10.710558 0.000007 -0.000000 -0.000000 0.000000 -0.000680 9.278137 -0.000000 0.000000 -0.000001 
0.000006 104.270477 1.554256 0.000010 0.000003 -0.000113 -0.000005 10.181587 0.131522 0.000001 -0.000003 0.000084 -0.000000 9.893967 -1.470711 0.000001 0.000000 -0.000000 -0.000000 9.220802 -1.370642 0.000000 -0.000000 -0.000000 0.000001 16.740433 -2.049030 0.000000 -0.000000 -0.000000 0.000000 9.617859 1.685014 0.000000 0.000000 0.000000 0.000002 22.037384 7.501101 0.000000 -0.000000 0.000000 -4.569968 11.014880 -2.160881 0.000008 0.000001 -0.000038 -10.592867 -0.524783 -2.231878 71.094073 35.460413 -25.736962 -27.841534 -0.000003 0.000560 -55.276639 109.088585 72.655297 -28.328808 0.000011 0.000024 -0.000319 -0.000042 0.000004 -2.464425 -1.573814 2.682335 -43.588850 -517.420161 -0.414049 -3.215235 -1.872509 1.924625 -32.142378 146.523841 207.563712 -2.654959 -1.527856 1.513057 147.605429 27.625030 -28.815479 -2.018837 -1.151996 1.108065 -0.000004 -0.000000 0.000000 -9.108381 -0.517557 2.260136 102.960662 15.105112 -18.971113 -3.700062 0.000318 0.001524 99.901523 13.192777 -15.638608 -2.850087 0.000372 -0.000239 98.237593 10.792018 -12.453556 -2.772171 -0.000000 -0.000022 0.000000 0.000001 -0.000000 -9.532604 0.000270 0.000259 98.419078 16.071964 -18.748610 -3.700069 0.000324 0.003987 96.062403 12.604435 -13.895037 -2.950067 0.000333 -0.001772 98.504339 11.849110 -13.727429 -2.946615 0.000001 -0.000153 -0.000000 -0.000002 -0.000001 -9.103733 -0.042759 -1.864841 97.803364 18.277503 -20.846420 -3.379336 0.000329 -0.000800 95.017760 9.331155 -10.200879 -2.889746 0.000351 0.000670 102.712877 6.717855 -8.453606 -2.638806 -0.000000 0.000941 0.000001 0.000001 -0.000001 -8.076778 -0.486402 -3.805999 90.551404 20.389650 -20.426403 -3.600054 0.000270 -0.003511 91.306392 8.662340 -8.497258 -2.100003 0.000325 -0.005462 95.957205 4.096745 -4.308066 -2.115771 -0.000055 -0.003676 -0.000001 0.000000 -0.000005 4.570446 11.014691 -2.160851 -0.000018 0.000010 -0.000021 10.592532 -0.524532 -2.232393 70.039492 -66.034187 48.964509 27.841743 -0.000080 -0.000093 227.093203 -71.028066 242.818580 28.328831 -0.000013 0.000036 0.000022 -0.000089 0.000000 2.466150 -1.576169 2.681866 127.914772 156.501286 -165.371434 3.217815 -1.872004 1.916535 276.575670 43.035331 34.949156 2.656004 -1.528819 1.514594 -117.160803 52.163094 64.007328 2.020891 -1.154072 1.115140 0.000005 0.000002 0.000002 9.109282 -0.517668 2.260011 205.003005 -2.369553 349.382590 3.699788 0.000323 -0.000201 194.611364 -8.359553 -419.403804 2.849810 0.000012 0.000433 181.177584 -13.767213 -170.277026 2.774875 -0.000045 -0.000027 0.000001 -0.000002 0.000002 9.533400 0.000400 0.000202 209.049196 -0.420673 -1.596442 3.699955 0.000386 -0.000070 208.040472 -4.087959 -16.260659 2.949846 0.000352 0.000084 200.000138 -8.871205 -47.497986 2.952864 -0.000017 0.000051 -0.000000 -0.000001 0.000001 9.104518 -0.042665 -1.864926 212.116005 -2.070486 -7.189638 3.149982 0.000382 0.000227 215.445436 -2.490813 -7.787730 2.949899 0.000395 0.000225 214.221889 -7.426244 -23.811703 2.644323 0.000030 0.000049 -0.000001 -0.000001 0.000001 8.077711 -0.486483 -3.806087 207.251654 -4.402746 -19.565869 3.600001 0.000401 0.014870 206.455377 2.816614 9.997727 2.100052 0.000341 0.007843 203.641626 4.934322 21.042063 2.125509 -0.000014 0.007528 0.000002 -0.000002 0.000001 -8.207786 -6.751667 -1.599560 -0.077001 -0.000003 0.000080 -0.000002 -44.370110 0.345938 0.153719 -0.000000 -0.000000 0.000000 -44.423679 -3.043532 -0.076700 0.000000 -0.000002 -0.000006 -8.728667 10.710559 -0.000009 -0.000000 -0.000000 -0.000001 -0.000679 9.278123 0.000000 -0.000000 -0.000000 8.207792 -6.751710 -1.599556 -0.074518 -0.000003 0.000081 -0.000002 -44.370014 0.346960 0.148822 0.000002 0.000000 -0.000001 -44.423664 -3.044403 -0.074314 0.000000 -0.000002 -0.000004 -8.728671 10.710558 0.000007 -0.000000 -0.000000 0.000000 -0.000680 9.278137 -0.000000 0.000000 -0.000001 
0.000006 104.270477 1.554256 0.000010 0.000003 -0.000113 -0.000005 10.181587 0.131522 0.000001 -0.000003 0.000084 -0.000000 9.893967 -1.470711 0.000001 0.000000 -0.000000 -0.000000 9.220802 -1.370642 0.000000 -0.000000 -0.000000 0.000001 16.740433 -2.049030 0.000000 -0.000000 -0.000000 0.000000 9.617859 1.685014 0.000000 0.000000 0.000000 0.000002 22.037384 7.501101 0.000000 -0.000000 0.000000 -4.569968 11.014880 -2.160881 0.000008 0.000001 -0.000038 -10.592875 -0.524773 -2.231894 71.091997 30.977251 -22.399098 -27.841513 0.000016 0.000538 -55.106724 109.270282 72.641398 -28.328817 0.000021 0.000028 -0.000321 -0.000044 0.000005 -2.464401 -1.573825 2.682340 -43.201923 -516.947840 0.357457 -3.215238 -1.872514 1.924604 -32.943160 146.501096 209.938541 -2.654967 -1.527866 1.513055 147.293958 27.613323 -29.368389 -2.018834 -1.151985 1.108049 -0.000002 -0.000001 0.000002 -9.108374 -0.517547 2.260146 103.084036 15.048333 -18.941523 -3.700073 0.000317 0.001526 99.614341 13.331021 -15.722969 -2.850084 0.000373 -0.000249 98.013768 10.921897 -12.553909 -2.772165 -0.000015 -0.000023 -0.000001 0.000000 0.000001 -9.532568 0.000263 0.000259 98.460073 15.854802 -18.511445 -3.700100 0.000323 0.003993 95.601557 12.665922 -13.851810 -2.950059 0.000331 -0.001789 98.106529 11.920254 -13.714055 -2.946641 0.000014 -0.000157 -0.000000 0.000001 0.000000 -9.103686 -0.042763 -1.864837 97.913617 18.076791 -20.657427 -3.379315 0.000327 -0.000807 94.858043 9.221094 -10.052834 -2.889739 0.000362 0.000677 102.418789 6.710888 -8.400751 -2.638785 -0.000002 0.000941 0.000000 0.000002 -0.000001 -8.076747 -0.486407 -3.806017 90.985626 19.994305 -20.177214 -3.600047 0.000281 -0.003514 91.655292 8.157875 -8.032278 -2.099999 0.000334 -0.005464 96.081255 3.845267 -4.038725 -2.115774 -0.000054 -0.003680 0.000002 -0.000001 -0.000001 4.570446 11.014691 -2.160851 -0.000018 0.000010 -0.000021 10.592528 -0.524532 -2.232399 70.147996 -64.101940 47.461759 27.841732 -0.000076 -0.000091 227.206980 -70.569173 243.390349 28.328838 -0.000013 0.000031 0.000021 -0.000089 0.000000 2.466167 -1.576150 2.681865 126.172650 159.682897 -164.724601 3.217808 -1.872004 1.916557 274.220921 42.831071 36.384018 2.655961 -1.528828 1.514590 -119.901867 52.947210 66.719514 2.020891 -1.154057 1.115143 0.000006 0.000004 0.000002 9.109245 -0.517669 2.260036 210.624470 -6.802650 335.531950 3.699753 0.000212 -0.000173 200.746882 -20.217223 -448.485001 2.849969 -0.000014 0.000441 162.897348 -64.479349 -206.821311 2.774880 -0.000015 -0.000043 0.000002 -0.000000 -0.000000 9.533396 0.000422 0.000228 211.505714 -1.987349 -7.013518 3.699944 0.000346 -0.000045 214.666343 -4.940873 -15.735166 2.949891 0.000314 0.000147 213.237864 -11.325546 -36.759183 2.952867 -0.000034 0.000062 0.000003 0.000001 -0.000001 9.104513 -0.042676 -1.864908 215.621395 -2.538164 -7.893747 3.149966 0.000351 0.000230 220.042795 -3.685854 -10.096112 2.949874 0.000371 0.000245 222.669426 -10.092110 -25.480019 2.644322 0.000030 0.000060 -0.000000 -0.000001 0.000001 8.077720 -0.486493 -3.806076 211.200254 -4.429909 -17.155550 3.599977 0.000376 0.014883 209.432438 1.369035 3.549714 2.100042 0.000332 0.007872 206.329278 3.037068 11.044242 2.125508 -0.000002 0.007509 -0.000005 -0.000002 0.000001 -8.207786 -6.751667 -1.599560 -0.077001 -0.000003 0.000080 -0.000002 -44.370110 0.345938 0.153719 -0.000000 -0.000000 0.000000 -44.423679 -3.043532 -0.076700 0.000000 -0.000002 -0.000006 -8.728667 10.710559 -0.000009 -0.000000 -0.000000 -0.000001 -0.000679 9.278123 0.000000 -0.000000 -0.000000 8.207792 -6.751710 -1.599556 -0.074518 -0.000003 0.000081 -0.000002 -44.370014 0.346960 0.148822 0.000002 0.000000 -0.000001 -44.423664 -3.044403 -0.074314 0.000000 -0.000002 -0.000004 -8.728671 10.710558 0.000007 -0.000000 -0.000000 0.000000 -0.000680 9.278137 -0.000000 0.000000 -0.000001 
